<mxfile host="app.diagrams.net" modified="2021-07-10T10:16:44.873Z" agent="5.0 (Windows NT 6.3; Win64; x64) AppleWebKit/537.36 (KHTML, like Gecko) Chrome/91.0.4472.124 Safari/537.36" etag="0Jmv1qLdwv0s_vAxGpNN" version="14.8.5" type="github">
  <diagram id="FvDmeONsD7g1HzwkW55i" name="Page-1">
    <mxGraphModel dx="1673" dy="2103" grid="1" gridSize="10" guides="1" tooltips="1" connect="1" arrows="1" fold="1" page="1" pageScale="1" pageWidth="827" pageHeight="1169" math="0" shadow="0">
      <root>
        <mxCell id="0" />
        <mxCell id="1" parent="0" />
        <mxCell id="AoSyrduxo76jjZ0XRkdx-16" value="военный" style="swimlane;fontStyle=0;childLayout=stackLayout;horizontal=1;startSize=26;horizontalStack=0;resizeParent=1;resizeParentMax=0;resizeLast=0;collapsible=1;marginBottom=0;rounded=0;sketch=0;" vertex="1" parent="1">
          <mxGeometry x="350" y="-40" width="110" height="130" as="geometry" />
        </mxCell>
        <mxCell id="AoSyrduxo76jjZ0XRkdx-17" value="рост" style="text;strokeColor=none;fillColor=none;align=left;verticalAlign=top;spacingLeft=4;spacingRight=4;overflow=hidden;rotatable=0;points=[[0,0.5],[1,0.5]];portConstraint=eastwest;" vertex="1" parent="AoSyrduxo76jjZ0XRkdx-16">
          <mxGeometry y="26" width="110" height="26" as="geometry" />
        </mxCell>
        <mxCell id="AoSyrduxo76jjZ0XRkdx-18" value="вес" style="text;strokeColor=none;fillColor=none;align=left;verticalAlign=top;spacingLeft=4;spacingRight=4;overflow=hidden;rotatable=0;points=[[0,0.5],[1,0.5]];portConstraint=eastwest;" vertex="1" parent="AoSyrduxo76jjZ0XRkdx-16">
          <mxGeometry y="52" width="110" height="26" as="geometry" />
        </mxCell>
        <mxCell id="AoSyrduxo76jjZ0XRkdx-26" value="ловкость" style="text;strokeColor=none;fillColor=none;align=left;verticalAlign=top;spacingLeft=4;spacingRight=4;overflow=hidden;rotatable=0;points=[[0,0.5],[1,0.5]];portConstraint=eastwest;" vertex="1" parent="AoSyrduxo76jjZ0XRkdx-16">
          <mxGeometry y="78" width="110" height="26" as="geometry" />
        </mxCell>
        <mxCell id="AoSyrduxo76jjZ0XRkdx-19" value="сила" style="text;strokeColor=none;fillColor=none;align=left;verticalAlign=top;spacingLeft=4;spacingRight=4;overflow=hidden;rotatable=0;points=[[0,0.5],[1,0.5]];portConstraint=eastwest;" vertex="1" parent="AoSyrduxo76jjZ0XRkdx-16">
          <mxGeometry y="104" width="110" height="26" as="geometry" />
        </mxCell>
        <mxCell id="AoSyrduxo76jjZ0XRkdx-25" value="" style="endArrow=none;html=1;entryX=0.5;entryY=0;entryDx=0;entryDy=0;entryPerimeter=0;exitX=1;exitY=1;exitDx=0;exitDy=0;exitPerimeter=0;" edge="1" parent="1">
          <mxGeometry width="50" height="50" relative="1" as="geometry">
            <mxPoint x="414" y="60" as="sourcePoint" />
            <mxPoint x="405" y="64" as="targetPoint" />
          </mxGeometry>
        </mxCell>
        <mxCell id="AoSyrduxo76jjZ0XRkdx-29" value="мечник" style="swimlane;fontStyle=0;childLayout=stackLayout;horizontal=1;startSize=26;horizontalStack=0;resizeParent=1;resizeParentMax=0;resizeLast=0;collapsible=1;marginBottom=0;rounded=0;sketch=0;" vertex="1" parent="1">
          <mxGeometry x="230" y="165" width="110" height="78" as="geometry" />
        </mxCell>
        <mxCell id="AoSyrduxo76jjZ0XRkdx-75" value="щит" style="text;strokeColor=none;fillColor=none;align=left;verticalAlign=top;spacingLeft=4;spacingRight=4;overflow=hidden;rotatable=0;points=[[0,0.5],[1,0.5]];portConstraint=eastwest;" vertex="1" parent="AoSyrduxo76jjZ0XRkdx-29">
          <mxGeometry y="26" width="110" height="26" as="geometry" />
        </mxCell>
        <mxCell id="AoSyrduxo76jjZ0XRkdx-73" value="мечь" style="text;strokeColor=none;fillColor=none;align=left;verticalAlign=top;spacingLeft=4;spacingRight=4;overflow=hidden;rotatable=0;points=[[0,0.5],[1,0.5]];portConstraint=eastwest;" vertex="1" parent="AoSyrduxo76jjZ0XRkdx-29">
          <mxGeometry y="52" width="110" height="26" as="geometry" />
        </mxCell>
        <mxCell id="AoSyrduxo76jjZ0XRkdx-46" value="мечник с одноручным мечом" style="swimlane;fontStyle=0;childLayout=stackLayout;horizontal=1;startSize=26;horizontalStack=0;resizeParent=1;resizeParentMax=0;resizeLast=0;collapsible=1;marginBottom=0;rounded=0;sketch=0;" vertex="1" parent="1">
          <mxGeometry x="60" y="400" width="170" height="52" as="geometry" />
        </mxCell>
        <mxCell id="AoSyrduxo76jjZ0XRkdx-52" value="мечник с двуручным мечом" style="swimlane;fontStyle=0;childLayout=stackLayout;horizontal=1;startSize=26;horizontalStack=0;resizeParent=1;resizeParentMax=0;resizeLast=0;collapsible=1;marginBottom=0;rounded=0;sketch=0;" vertex="1" parent="1">
          <mxGeometry x="290" y="410" width="170" height="52" as="geometry" />
        </mxCell>
        <mxCell id="AoSyrduxo76jjZ0XRkdx-53" value="мечь двуручный" style="text;strokeColor=none;fillColor=none;align=left;verticalAlign=top;spacingLeft=4;spacingRight=4;overflow=hidden;rotatable=0;points=[[0,0.5],[1,0.5]];portConstraint=eastwest;" vertex="1" parent="AoSyrduxo76jjZ0XRkdx-52">
          <mxGeometry y="26" width="170" height="26" as="geometry" />
        </mxCell>
        <mxCell id="AoSyrduxo76jjZ0XRkdx-57" value="лучник" style="swimlane;fontStyle=0;childLayout=stackLayout;horizontal=1;startSize=26;horizontalStack=0;resizeParent=1;resizeParentMax=0;resizeLast=0;collapsible=1;marginBottom=0;rounded=0;sketch=0;" vertex="1" parent="1">
          <mxGeometry x="550" y="150" width="110" height="104" as="geometry" />
        </mxCell>
        <mxCell id="AoSyrduxo76jjZ0XRkdx-88" value="точность" style="text;strokeColor=none;fillColor=none;align=left;verticalAlign=top;spacingLeft=4;spacingRight=4;overflow=hidden;rotatable=0;points=[[0,0.5],[1,0.5]];portConstraint=eastwest;" vertex="1" parent="AoSyrduxo76jjZ0XRkdx-57">
          <mxGeometry y="26" width="110" height="26" as="geometry" />
        </mxCell>
        <mxCell id="AoSyrduxo76jjZ0XRkdx-58" value="лук" style="text;strokeColor=none;fillColor=none;align=left;verticalAlign=top;spacingLeft=4;spacingRight=4;overflow=hidden;rotatable=0;points=[[0,0.5],[1,0.5]];portConstraint=eastwest;" vertex="1" parent="AoSyrduxo76jjZ0XRkdx-57">
          <mxGeometry y="52" width="110" height="26" as="geometry" />
        </mxCell>
        <mxCell id="AoSyrduxo76jjZ0XRkdx-61" value="колчан" style="text;strokeColor=none;fillColor=none;align=left;verticalAlign=top;spacingLeft=4;spacingRight=4;overflow=hidden;rotatable=0;points=[[0,0.5],[1,0.5]];portConstraint=eastwest;" vertex="1" parent="AoSyrduxo76jjZ0XRkdx-57">
          <mxGeometry y="78" width="110" height="26" as="geometry" />
        </mxCell>
        <mxCell id="AoSyrduxo76jjZ0XRkdx-78" value="" style="endArrow=none;dashed=1;html=1;entryX=0.5;entryY=0;entryDx=0;entryDy=0;exitX=0.999;exitY=1.043;exitDx=0;exitDy=0;exitPerimeter=0;" edge="1" parent="1" source="AoSyrduxo76jjZ0XRkdx-19" target="AoSyrduxo76jjZ0XRkdx-57">
          <mxGeometry width="50" height="50" relative="1" as="geometry">
            <mxPoint x="560" y="270" as="sourcePoint" />
            <mxPoint x="610" y="220" as="targetPoint" />
          </mxGeometry>
        </mxCell>
        <mxCell id="AoSyrduxo76jjZ0XRkdx-79" value="" style="endArrow=none;dashed=1;html=1;entryX=0.5;entryY=0;entryDx=0;entryDy=0;exitX=-0.027;exitY=1.133;exitDx=0;exitDy=0;exitPerimeter=0;" edge="1" parent="1" source="AoSyrduxo76jjZ0XRkdx-19" target="AoSyrduxo76jjZ0XRkdx-29">
          <mxGeometry width="50" height="50" relative="1" as="geometry">
            <mxPoint x="560" y="270" as="sourcePoint" />
            <mxPoint x="610" y="220" as="targetPoint" />
          </mxGeometry>
        </mxCell>
        <mxCell id="AoSyrduxo76jjZ0XRkdx-80" value="" style="endArrow=none;dashed=1;html=1;dashPattern=1 3;strokeWidth=2;entryX=0.5;entryY=0;entryDx=0;entryDy=0;exitX=0.465;exitY=0.975;exitDx=0;exitDy=0;exitPerimeter=0;" edge="1" parent="1" source="AoSyrduxo76jjZ0XRkdx-61">
          <mxGeometry width="50" height="50" relative="1" as="geometry">
            <mxPoint x="560" y="270" as="sourcePoint" />
            <mxPoint x="775" y="359.99999999999955" as="targetPoint" />
          </mxGeometry>
        </mxCell>
        <mxCell id="AoSyrduxo76jjZ0XRkdx-82" value="" style="endArrow=none;dashed=1;html=1;exitX=0.5;exitY=0;exitDx=0;exitDy=0;entryX=0.422;entryY=1.036;entryDx=0;entryDy=0;entryPerimeter=0;" edge="1" parent="1" source="AoSyrduxo76jjZ0XRkdx-46" target="AoSyrduxo76jjZ0XRkdx-73">
          <mxGeometry width="50" height="50" relative="1" as="geometry">
            <mxPoint x="560" y="270" as="sourcePoint" />
            <mxPoint x="610" y="220" as="targetPoint" />
          </mxGeometry>
        </mxCell>
        <mxCell id="AoSyrduxo76jjZ0XRkdx-83" value="" style="endArrow=none;dashed=1;html=1;entryX=0.5;entryY=0;entryDx=0;entryDy=0;exitX=0.593;exitY=1.127;exitDx=0;exitDy=0;exitPerimeter=0;" edge="1" parent="1" source="AoSyrduxo76jjZ0XRkdx-73" target="AoSyrduxo76jjZ0XRkdx-52">
          <mxGeometry width="50" height="50" relative="1" as="geometry">
            <mxPoint x="560" y="270" as="sourcePoint" />
            <mxPoint x="610" y="220" as="targetPoint" />
          </mxGeometry>
        </mxCell>
        <mxCell id="AoSyrduxo76jjZ0XRkdx-84" value="" style="endArrow=none;dashed=1;html=1;entryX=0.5;entryY=0;entryDx=0;entryDy=0;" edge="1" parent="1" source="AoSyrduxo76jjZ0XRkdx-61">
          <mxGeometry width="50" height="50" relative="1" as="geometry">
            <mxPoint x="560" y="270" as="sourcePoint" />
            <mxPoint x="585" y="389.99999999999955" as="targetPoint" />
          </mxGeometry>
        </mxCell>
        <mxCell id="AoSyrduxo76jjZ0XRkdx-85" value="лучник на коне" style="swimlane;fontStyle=0;childLayout=stackLayout;horizontal=1;startSize=26;horizontalStack=0;resizeParent=1;resizeParentMax=0;resizeLast=0;collapsible=1;marginBottom=0;rounded=0;sketch=0;" vertex="1" parent="1">
          <mxGeometry x="540" y="387" width="110" height="52" as="geometry" />
        </mxCell>
        <mxCell id="AoSyrduxo76jjZ0XRkdx-86" value="конь" style="text;strokeColor=none;fillColor=none;align=left;verticalAlign=top;spacingLeft=4;spacingRight=4;overflow=hidden;rotatable=0;points=[[0,0.5],[1,0.5]];portConstraint=eastwest;" vertex="1" parent="AoSyrduxo76jjZ0XRkdx-85">
          <mxGeometry y="26" width="110" height="26" as="geometry" />
        </mxCell>
      </root>
    </mxGraphModel>
  </diagram>
</mxfile>
